<?xml version="1.0" encoding="utf-8"?>
<!-- Generator: Adobe Illustrator 19.0.0, SVG Export Plug-In . SVG Version: 6.00 Build 0)  -->
<svg version="1.1" id="Layer_1" xmlns="http://www.w3.org/2000/svg" xmlns:xlink="http://www.w3.org/1999/xlink" x="0px" y="0px"
	 viewBox="0 0 50 50" style="enable-background:new 0 0 50 50;" xml:space="preserve">
<style type="text/css">
	.st0{fill:#000000;}
</style>
<g id="XMLID_712_">
	<path id="XMLID_714_" class="st0" d="M40.2,3H9.8C6,3,3,6,3,9.8v30.4C3,44,6,47,9.8,47h30.4c3.7,0,6.8-3,6.8-6.8V9.8
		C47,6,44,3,40.2,3z M41,31.6c-0.1,1.7-0.3,2.9-0.8,3.9c-0.4,1-0.9,1.9-1.8,2.8s-1.8,1.4-2.8,1.8c-1,0.4-2.2,0.7-3.9,0.8
		C29.9,41,29.4,41,25,41s-4.9,0-6.6-0.1c-1.7-0.1-2.9-0.3-3.9-0.8c-1-0.4-1.9-0.9-2.8-1.8s-1.4-1.8-1.8-2.8c-0.4-1-0.7-2.2-0.8-3.9
		S9,29.3,9,25s0-4.9,0.1-6.6c0.1-1.7,0.3-2.9,0.8-3.9c0.4-1,0.9-1.9,1.8-2.8s1.8-1.4,2.8-1.8c1-0.4,2.2-0.7,3.9-0.8
		c1.7-0.1,2.3-0.1,6.6-0.1s4.9,0,6.6,0.1c1.7,0.1,2.9,0.3,3.9,0.8c1,0.4,1.9,0.9,2.8,1.8s1.4,1.8,1.8,2.8c0.4,1,0.7,2.2,0.8,3.9
		c0.1,1.7,0.1,2.3,0.1,6.6C41.1,29.3,41.1,29.9,41,31.6z"/>
	<path id="XMLID_713_" class="st0" d="M38.5,20.5c-2.8,1.8-5.6,3.7-8.4,5.6c0.1,0.3,0.2,0.6,0.3,0.9c0.1,0.4,0.3,0.8,0.4,1.2
		c0.3,1,0.7,1.9,1,2.9c0.2,0.7,0.5,1.4,0.7,2c0.2,0.6,0.4,1.2,0.6,1.8c0,0,0,0,0,0.1c-0.2-0.1-0.3-0.2-0.5-0.3
		c-0.9-0.6-1.7-1.1-2.5-1.7c-0.5-0.3-0.9-0.6-1.4-0.9c-1-0.7-1.9-1.3-2.9-1.9c-0.2-0.1-0.5-0.3-0.8-0.5c0,0-0.1,0-0.1,0
		c-0.9,0.7-1.9,1.3-2.9,1.9c-1,0.7-2,1.4-3.1,2c-0.7,0.5-1.4,0.9-2.1,1.4c0,0,0,0,0,0c0-0.1,0-0.2,0.1-0.3c0.2-0.6,0.4-1.1,0.6-1.6
		c0.3-0.9,0.7-1.9,1-2.8c0.2-0.7,0.5-1.4,0.7-2c0.2-0.6,0.4-1.2,0.7-1.8c0-0.1,0-0.1,0-0.2c-0.8-0.5-1.6-1-2.3-1.6
		c-1.9-1.3-3.9-2.6-5.8-3.9c0,0,0,0-0.1,0c3.5,0,6.9,0,10.3,0c0.2-0.7,0.5-1.3,0.7-1.9c0.3-0.9,0.7-1.9,1-2.8
		c0.3-0.8,0.6-1.6,0.8-2.3c0.2-0.6,0.4-1.2,0.6-1.8c0,0,0,0,0,0c0.2,0.5,0.3,1,0.5,1.5c0.3,0.8,0.6,1.6,0.9,2.4
		c0.2,0.6,0.4,1.2,0.7,1.9c0.3,0.9,0.7,1.9,1,2.8c0.1,0.3,0.1,0.3,0.4,0.3c3.3,0,6.5,0,9.8,0C38.3,20.5,38.4,20.5,38.5,20.5z"/>
</g>
<g id="XMLID_6_">
</g>
</svg>
