<svg width="220" height="58" viewBox="0 0 220 58" fill="none" xmlns="http://www.w3.org/2000/svg">
<g clip-path="url(#clip0)">
<path d="M0 25.0185C0.0595394 24.8948 0.0998609 24.7628 0.119571 24.6269C0.550258 19.2037 2.66327 14.0505 6.16335 9.88761C9.14735 6.22603 13.0428 3.4159 17.4574 1.7402C19.6012 0.855061 21.8728 0.318901 24.186 0.152049C25.8662 -0.00196921 27.5542 -0.0528272 29.2406 -0.000239198C30.705 0.125314 32.1582 0.357994 33.5886 0.695935C35.5679 1.10999 37.4808 1.79445 39.2737 2.73007C44.6057 5.37026 48.9247 9.68844 51.5678 15.0219C52.8102 17.5362 53.6641 20.2246 54.1005 22.9953C55.1433 29.5764 53.7354 36.3116 50.1438 41.9225L49.5785 42.7383C49.542 42.8053 49.5093 42.8743 49.4807 42.945C49.1546 42.6078 48.8937 42.3467 48.6437 42.0639C47.9045 41.259 47.1871 40.454 46.4697 39.6599C46.3868 39.5816 46.3338 39.4768 46.32 39.3636C46.3061 39.2504 46.3321 39.1359 46.3936 39.0399C47.0784 37.604 47.7958 36.1899 48.3828 34.6888C49.1605 32.5966 49.5972 30.393 49.6764 28.1622C49.7658 26.4109 49.6527 24.6553 49.3394 22.93C48.917 20.8177 48.1844 18.7795 47.1654 16.882C45.1616 12.903 41.9757 9.64268 38.0454 7.5489C35.8986 6.34782 33.5652 5.51676 31.1428 5.09053C29.8753 4.86632 28.5925 4.73905 27.3057 4.70981C25.0515 4.70927 22.8097 5.04284 20.6532 5.69969C16.9981 6.7983 13.6858 8.81703 11.0332 11.5628C8.80563 13.841 7.0995 16.5764 6.03291 19.5797C4.98386 22.4343 4.52888 25.4733 4.69588 28.5103C4.83717 30.5575 5.25024 32.5767 5.92421 34.5148C6.696 36.8111 7.83394 38.9674 9.29394 40.9C11.2917 43.4767 13.8152 45.5979 16.6965 47.122C18.1098 47.8945 19.6046 48.5074 21.1532 48.9495C22.5482 49.3417 23.9796 49.5895 25.4252 49.6892C28.2989 49.9216 31.1903 49.589 33.9365 48.7102C34.8495 48.4165 35.73 48.0467 36.6214 47.6768C37.2192 47.4375 37.3823 47.4375 37.7953 47.9052C38.6432 48.8407 39.4802 49.7871 40.3389 50.7226C40.5455 50.951 40.5672 51.0598 40.252 51.2229C38.1596 52.3543 35.9313 53.2134 33.6212 53.7792C32.1329 54.1601 30.6029 54.3538 29.0667 54.3557C27.2731 54.3557 25.4795 54.3557 23.7077 54.2252C22.2851 54.0605 20.8782 53.7804 19.501 53.3876C17.1154 52.7543 14.8447 51.7485 12.7724 50.4071C8.79247 47.9103 5.51797 44.4351 3.26103 40.3126C2.09527 38.174 1.22496 35.8869 0.673946 33.514C0.434804 32.5133 0.326103 31.5451 0.152181 30.4574C0.110284 30.2952 0.0594797 30.1354 0 29.9788L0 25.0185Z" fill="white"/>
<path d="M38.8932 42.7603C38.2845 41.8575 38.2845 41.8575 37.4801 42.3796C35.1729 43.9389 32.5476 44.9644 29.7949 45.3818C27.5056 45.6886 25.179 45.5632 22.9359 45.012C20.7968 44.5265 18.7661 43.6487 16.9465 42.4231C13.8219 40.2955 11.4272 37.2573 10.0874 33.7209C9.35267 31.8182 8.9625 29.7996 8.9352 27.7599C8.85252 25.0998 9.35287 22.4537 10.4011 20.0077C11.4493 17.5617 13.02 15.375 15.0028 13.6013C16.9857 11.8275 19.3325 10.5097 21.8786 9.74038C24.4246 8.97107 27.1081 8.76892 29.7406 9.14815C33.1282 9.60842 36.3165 11.0189 38.9367 13.2164C41.3271 15.1966 43.1625 17.7642 44.263 20.6677C45.3231 23.4918 45.6791 26.532 45.3003 29.5249C44.9215 32.5178 43.8192 35.3731 42.089 37.8436C41.7217 38.3687 41.3262 38.8734 40.9042 39.3556C40.7302 39.5731 40.7194 39.6928 40.9042 39.8995C41.3716 40.4107 41.3607 40.4216 41.8825 39.9647C42.0201 39.805 42.1927 39.6792 42.3868 39.5972C42.581 39.5151 42.7914 39.479 43.0018 39.4916C43.2121 39.5043 43.4167 39.5653 43.5997 39.67C43.7826 39.7747 43.9389 39.9202 44.0565 40.0953C45.4044 41.5855 46.774 43.054 48.1219 44.5443C48.7959 45.2731 49.4589 46.0236 50.1111 46.7198C50.2536 46.8384 50.3663 46.9887 50.4402 47.1588C50.514 47.3289 50.547 47.5139 50.5364 47.699C50.5258 47.8842 50.472 48.0642 50.3793 48.2248C50.2865 48.3853 50.1575 48.5218 50.0024 48.6234L46.2631 52.039C46.134 52.189 45.9717 52.3068 45.7891 52.383C45.6065 52.4592 45.4087 52.4917 45.2114 52.478C45.014 52.4642 44.8226 52.4046 44.6523 52.3039C44.482 52.2031 44.3376 52.064 44.2304 51.8976L38.2953 45.371C38.1457 45.1979 38.0111 45.0123 37.8931 44.8162C37.778 44.6217 37.7304 44.3946 37.758 44.1702C37.7855 43.9458 37.8866 43.7369 38.0453 43.5761C38.3062 43.2824 38.6214 43.0322 38.9149 42.7603H38.8932ZM27.3383 40.7588C30.0026 40.7309 32.5991 39.9154 34.8015 38.4147C37.0038 36.9141 38.7137 34.7953 39.716 32.3249C40.7183 29.8544 40.9683 27.1426 40.4346 24.5303C39.9009 21.918 38.6074 19.522 36.7166 17.6434C34.8258 15.7649 32.4222 14.4877 29.808 13.9724C27.1938 13.4571 24.4857 13.7268 22.0242 14.7476C19.5628 15.7683 17.4579 17.4946 15.9742 19.7092C14.4904 21.9238 13.6942 24.528 13.6854 27.1943C13.6796 28.9855 14.0294 30.76 14.7147 32.4148C15.4 34.0696 16.407 35.5716 17.6772 36.8336C18.9475 38.0957 20.4556 39.0926 22.1141 39.7664C23.7726 40.4402 25.5484 40.7775 27.3383 40.7588" fill="white"/>
<path d="M36.4475 27.6185C36.4029 29.5876 35.7206 31.4891 34.5033 33.0368C33.2859 34.5846 31.5993 35.695 29.6971 36.201C27.4386 36.822 25.0291 36.5677 22.9497 35.4889C20.8702 34.4102 19.2739 32.5863 18.4792 30.3814C17.9821 29.029 17.8145 27.5775 17.9904 26.1473C18.1662 24.717 18.6803 23.3494 19.4901 22.1579C19.6369 21.8754 19.8386 21.625 20.0834 21.4215C20.3281 21.218 20.611 21.0654 20.9154 20.9726C21.2198 20.8799 21.5396 20.8489 21.8562 20.8814C22.1727 20.914 22.4796 21.0094 22.7588 21.1621C23.0381 21.3149 23.284 21.5218 23.4823 21.7709C23.6805 22.02 23.8271 22.3061 23.9135 22.6126C23.9998 22.9191 24.0242 23.2398 23.9851 23.5558C23.9461 23.8718 23.8444 24.1769 23.686 24.4531C23.3224 25.0266 23.0339 25.6444 22.8272 26.2914C22.6974 26.9024 22.697 27.5338 22.826 28.145C22.955 28.7562 23.2105 29.3335 23.5761 29.8398C23.9418 30.3461 24.4093 30.7701 24.9488 31.0845C25.4882 31.3988 26.0874 31.5966 26.7079 31.665C27.694 31.7475 28.6804 31.5094 29.5205 30.9862C30.3606 30.463 31.0096 29.6825 31.3711 28.7607C31.6166 28.0855 31.6983 27.3616 31.6095 26.6486C31.5207 25.9356 31.2639 25.254 30.8602 24.6598C30.6832 24.4019 30.5587 24.1117 30.4938 23.8057C30.4288 23.4997 30.4248 23.1839 30.4818 22.8763C30.597 22.2552 30.954 21.7052 31.4744 21.3475C31.9948 20.9898 32.6358 20.8535 33.2566 20.9688C33.8773 21.084 34.4269 21.4413 34.7843 21.9621C35.9172 23.6261 36.4955 25.6059 36.4366 27.6185" fill="white"/>
<path d="M24.7512 21.4291C24.7512 20.1455 24.7512 18.8619 24.7512 17.5784C24.7354 17.3185 24.7748 17.0583 24.867 16.8148C24.9591 16.5714 25.1019 16.3503 25.2859 16.1663C25.4698 15.9822 25.6907 15.8393 25.934 15.7471C26.1773 15.6548 26.4373 15.6154 26.697 15.6313C27.194 15.6055 27.6924 15.6237 28.1862 15.6856C28.6141 15.7588 29.0013 15.9838 29.2768 16.3194C29.5523 16.6551 29.6977 17.0789 29.6863 17.5131C29.6863 18.3833 29.6863 19.2535 29.6863 20.1238C29.6863 21.8098 29.6863 23.5067 29.6863 25.1928C29.7089 25.4681 29.6718 25.745 29.5774 26.0046C29.483 26.2641 29.3337 26.5002 29.1395 26.6965C28.9454 26.8929 28.7111 27.0449 28.4527 27.142C28.1943 27.2392 27.918 27.2793 27.6427 27.2595C27.2807 27.2374 26.9177 27.2374 26.5557 27.2595C26.3151 27.2625 26.0763 27.2172 25.8534 27.1264C25.6305 27.0356 25.428 26.9011 25.2579 26.7308C25.0877 26.5605 24.9533 26.3579 24.8626 26.1349C24.7718 25.9118 24.7266 25.6729 24.7295 25.4321C24.7295 24.105 24.7295 22.767 24.7295 21.44" fill="white"/>
<path d="M68.0686 9.92047H83.9716V12.7269H71.1775V19.6887H82.428V22.4299H71.1775V32.8616H68.0686V9.92047Z" fill="white"/>
<path d="M105.136 13.1947C106.724 15.4763 107.522 18.2157 107.407 20.994C107.518 24.0507 106.603 27.0565 104.81 29.533C103.788 30.8496 102.464 31.9001 100.95 32.5951C99.4362 33.2901 97.777 33.6092 96.1134 33.5251C94.5545 33.604 92.9977 33.3311 91.5583 32.7267C90.1189 32.1223 88.8337 31.2019 87.7978 30.0334C85.9305 27.5929 84.9732 24.5767 85.0911 21.5052C85.0119 18.6741 85.8217 15.8893 87.4065 13.5427C88.3847 12.1439 89.7042 11.0187 91.2397 10.2742C92.7751 9.52976 94.4754 9.19079 96.1787 9.28956C100.179 9.28956 103.165 10.5913 105.136 13.1947ZM102.396 27.8143C103.635 25.7782 104.268 23.4314 104.223 21.0484C104.335 18.6887 103.586 16.3688 102.114 14.5217C101.398 13.7009 100.506 13.0526 99.5046 12.625C98.5033 12.1974 97.4183 12.0017 96.3308 12.0525C95.2441 12.0171 94.1626 12.2175 93.1606 12.64C92.1586 13.0625 91.2599 13.697 90.5262 14.5C89.0261 16.1316 88.2761 18.5501 88.2761 21.7554C88.217 24.0418 88.8997 26.2859 90.2218 28.1515C91.5154 29.892 93.5916 30.7622 96.4721 30.7622C97.6326 30.8442 98.7939 30.6141 99.8355 30.0958C100.877 29.5774 101.761 28.7897 102.396 27.8143Z" fill="white"/>
<path d="M126.528 11.5848C128.022 12.9382 128.96 14.7993 129.159 16.8061H126.093C125.825 15.4465 125.118 14.2124 124.082 13.2926C122.873 12.361 121.366 11.9009 119.843 11.9981C118.816 11.9555 117.792 12.1479 116.85 12.5607C115.908 12.9735 115.073 13.5958 114.408 14.3803C113.053 15.9685 112.372 18.4015 112.364 21.6793C112.263 23.9971 112.911 26.2857 114.212 28.2059C114.852 29.0481 115.69 29.7184 116.651 30.1569C117.613 30.5955 118.669 30.7885 119.723 30.7187C120.758 30.7949 121.794 30.5919 122.723 30.1308C123.652 29.6696 124.441 28.9673 125.006 28.0971C125.702 26.9806 126.175 25.7393 126.398 24.4422H129.354C129.153 26.7003 128.222 28.8313 126.702 30.512C125.773 31.5018 124.641 32.2787 123.384 32.7895C122.127 33.3002 120.774 33.5326 119.419 33.4707C116.976 33.5439 114.599 32.6756 112.777 31.045C110.429 28.913 109.252 25.617 109.245 21.1572C109.14 18.1459 110.102 15.1945 111.962 12.8248C112.913 11.6578 114.125 10.7301 115.499 10.1162C116.873 9.50222 118.372 9.21912 119.876 9.28956C122.309 9.1454 124.7 9.97052 126.528 11.5848V11.5848Z" fill="white"/>
<path d="M135.952 9.92047V24.0615C135.899 25.5055 136.225 26.9382 136.898 28.2168C137.365 29.04 138.057 29.7127 138.892 30.1559C139.728 30.5991 140.673 30.7943 141.616 30.7187C144.268 30.7187 146.08 29.8194 147.051 28.021C147.617 26.7808 147.882 25.4238 147.823 24.0615V9.92047H150.953V22.8432C151.084 25.0728 150.713 27.3034 149.866 29.3698C148.464 32.1328 145.822 33.5251 141.942 33.5251C138.061 33.5251 135.42 32.1328 134.028 29.3698C133.182 27.3034 132.81 25.0728 132.941 22.8432V9.92047H135.952Z" fill="white"/>
<path d="M156.943 25.4539C156.954 26.5713 157.258 27.6664 157.823 28.6302C158.823 30.1458 160.573 30.9036 163.073 30.9036C164.116 30.9181 165.154 30.7487 166.139 30.4032C166.911 30.2161 167.598 29.772 168.086 29.1436C168.573 28.5152 168.834 27.7397 168.824 26.9441C168.872 26.4381 168.794 25.9279 168.594 25.4604C168.395 24.9928 168.081 24.5829 167.682 24.2682C166.586 23.6185 165.388 23.1588 164.139 22.9085L161.128 22.2123C159.662 21.9394 158.251 21.4248 156.953 20.6894C156.261 20.2168 155.702 19.5725 155.333 18.8195C154.963 18.0664 154.795 17.2302 154.845 16.3927C154.812 15.4488 154.981 14.5089 155.338 13.635C155.696 12.7611 156.236 11.9733 156.921 11.3237C158.547 9.91042 160.663 9.19521 162.812 9.33308C164.937 9.2711 167.026 9.88421 168.78 11.0844C170.411 12.2374 171.226 14.0975 171.226 16.6429H168.313C168.239 15.6342 167.91 14.661 167.356 13.8147C166.443 12.6181 164.899 12.0199 162.725 12.0199C161.36 11.8933 160.001 12.3117 158.943 13.1838C158.576 13.5282 158.285 13.9445 158.086 14.4069C157.888 14.8692 157.787 15.3675 157.79 15.8706C157.762 16.3669 157.874 16.8613 158.115 17.2963C158.355 17.7314 158.714 18.0894 159.149 18.329C160.43 18.8884 161.768 19.3078 163.138 19.5799L166.247 20.3196C167.493 20.5615 168.676 21.0537 169.726 21.7663C170.442 22.3096 171.014 23.0197 171.393 23.835C171.772 24.6502 171.946 25.5458 171.9 26.4437C171.987 27.5111 171.781 28.582 171.304 29.5406C170.827 30.4992 170.097 31.3091 169.193 31.8826C167.294 32.9976 165.122 33.5625 162.921 33.5143C160.549 33.6499 158.215 32.8714 156.399 31.3387C155.606 30.5852 154.987 29.6667 154.587 28.6481C154.187 27.6294 154.015 26.5353 154.084 25.443L156.943 25.4539Z" fill="white"/>
<path d="M194.575 30.8166C192.836 32.6005 190.325 33.5034 187.031 33.5034C183.737 33.5034 181.237 32.6005 179.498 30.8166C177.172 28.641 175.998 25.4539 175.998 21.3203C175.998 17.1868 177.172 13.9343 179.498 11.8241C181.237 10.0329 183.748 9.13727 187.031 9.13727C190.314 9.13727 192.828 10.0329 194.575 11.8241C196.887 13.9343 198.046 17.0998 198.053 21.3203C198.06 25.5409 196.901 28.7063 194.575 30.8166ZM191.575 27.3139C192.791 25.5617 193.381 23.4498 193.249 21.3203C193.379 19.191 192.79 17.0797 191.575 15.3267C191.042 14.6361 190.351 14.0838 189.56 13.7165C188.769 13.3492 187.902 13.1777 187.031 13.2164C186.161 13.1853 185.295 13.3591 184.504 13.7237C183.713 14.0883 183.018 14.6337 182.476 15.3158C181.243 17.0649 180.644 19.1838 180.781 21.3203C180.644 23.4535 181.243 25.569 182.476 27.3139C183.018 27.9974 183.712 28.5444 184.503 28.9108C185.294 29.2773 186.16 29.4532 187.031 29.4242C187.903 29.4584 188.77 29.2849 189.562 28.918C190.354 28.5512 191.048 28.0014 191.586 27.3139H191.575Z" fill="white"/>
<path d="M200.858 9.78995H205.891L215.032 25.8455V9.78995H219.511V32.8616H214.706L205.336 16.545V32.8616H200.858V9.78995Z" fill="white"/>
<path d="M65.6771 42.8691H67.5142L70.8622 48.4602L74.2102 42.8691H76.0907L71.6557 49.8199V54.5191H70.0795V49.8199L65.6771 42.8691Z" fill="white"/>
<path d="M83.3628 46.8721C83.76 47.3111 84.0617 47.8278 84.2488 48.3895C84.4359 48.9513 84.5044 49.5458 84.4498 50.1354C84.4988 51.341 84.1513 52.5294 83.4606 53.5184C83.0971 53.9602 82.6329 54.3084 82.1071 54.5336C81.5813 54.7589 81.0092 54.8546 80.4388 54.8128C79.9189 54.8366 79.4005 54.7423 78.9223 54.537C78.4441 54.3316 78.0186 54.0206 77.6777 53.6272C76.9576 52.7306 76.5937 51.5995 76.656 50.4509C76.5952 49.2218 76.9813 48.0123 77.743 47.0461C78.0964 46.6279 78.5406 46.2958 79.0417 46.0753C79.5427 45.8547 80.0875 45.7515 80.6344 45.7735C81.1391 45.7674 81.64 45.8614 82.1083 46.05C82.5766 46.2385 83.0029 46.5179 83.3628 46.8721V46.8721ZM82.4715 52.5176C82.825 51.77 83.0034 50.9516 82.9932 50.1245C83.0185 49.4618 82.8882 48.8024 82.6128 48.1992C82.4203 47.8257 82.1238 47.5161 81.7593 47.3076C81.3947 47.0991 80.9776 47.0008 80.5583 47.0244C80.1825 46.997 79.8066 47.0764 79.4739 47.2534C79.1412 47.4305 78.8652 47.698 78.6778 48.0251C78.268 48.7584 78.0651 49.5894 78.0908 50.4291C78.0613 51.2211 78.2654 52.0042 78.6778 52.6808C78.8795 52.983 79.1581 53.2259 79.4848 53.3846C79.8115 53.5433 80.1745 53.612 80.5366 53.5837C80.9291 53.6232 81.3243 53.5424 81.6698 53.352C82.0154 53.1616 82.2949 52.8706 82.4715 52.5176V52.5176Z" fill="white"/>
<path d="M87.6674 46.0236V51.6583C87.6504 52.031 87.7172 52.4027 87.863 52.746C87.9892 52.9978 88.1886 53.2053 88.4351 53.3413C88.6816 53.4772 88.9635 53.5352 89.2435 53.5075C89.6746 53.5343 90.1024 53.4175 90.4603 53.1755C90.8181 52.9335 91.0859 52.5798 91.2219 52.1695C91.4349 51.5396 91.5307 50.876 91.5045 50.2115V46.0236H92.9285V54.5191H91.5806V53.2573C91.4043 53.569 91.1764 53.8486 90.9066 54.084C90.3559 54.5267 89.6672 54.7616 88.9609 54.7475C88.4822 54.8022 87.998 54.7161 87.5675 54.4997C87.137 54.2833 86.7789 53.9461 86.5369 53.5292C86.2752 52.9916 86.1519 52.3971 86.1781 51.7997V46.0236H87.6674Z" fill="white"/>
<path d="M104.353 49.374C104.489 49.3707 104.621 49.3305 104.736 49.2577C104.851 49.1849 104.944 49.0822 105.005 48.9606C105.08 48.7895 105.114 48.6032 105.103 48.4167C105.124 48.205 105.086 47.9917 104.994 47.7999C104.902 47.6081 104.759 47.4452 104.581 47.3289C104.128 47.0845 103.616 46.9714 103.103 47.0026C102.81 46.9727 102.514 47.0112 102.239 47.115C101.964 47.2188 101.716 47.3851 101.516 47.6009C101.323 47.9017 101.207 48.2454 101.179 48.6016H99.8201C99.7868 48.1825 99.8623 47.7619 100.039 47.3807C100.217 46.9995 100.489 46.6706 100.831 46.4261C101.513 46.0049 102.302 45.7896 103.103 45.8061C103.948 45.7669 104.787 45.9627 105.527 46.3717C105.83 46.5555 106.078 46.8189 106.243 47.1333C106.408 47.4477 106.483 47.8013 106.462 48.1556V53.0506C106.453 53.173 106.483 53.2949 106.549 53.3987C106.614 53.4966 106.734 53.5401 106.929 53.5401H107.147H107.397V54.6279C107.234 54.6815 107.066 54.7215 106.897 54.7475C106.737 54.7603 106.577 54.7603 106.418 54.7475C106.207 54.7682 105.994 54.7305 105.802 54.6384C105.61 54.5464 105.447 54.4035 105.331 54.2254C105.192 53.9858 105.106 53.7185 105.081 53.4422C104.745 53.8626 104.317 54.2011 103.831 54.4321C103.273 54.7189 102.654 54.8646 102.027 54.8563C101.675 54.8694 101.323 54.8127 100.993 54.6895C100.663 54.5663 100.36 54.379 100.103 54.1384C99.8586 53.9089 99.6656 53.6304 99.5363 53.3211C99.4071 53.0118 99.3445 52.6787 99.3527 52.3436C99.3341 52.0033 99.3906 51.6631 99.5184 51.3472C99.6461 51.0314 99.842 50.7476 100.092 50.5161C100.641 50.0582 101.315 49.7775 102.027 49.7112L104.353 49.374ZM101.353 53.2355C101.664 53.4738 102.048 53.5968 102.44 53.5836C102.946 53.5864 103.446 53.467 103.896 53.2355C104.264 53.0798 104.575 52.8147 104.787 52.4761C104.999 52.1375 105.102 51.7418 105.081 51.3428V50.2007C104.877 50.3274 104.653 50.4193 104.418 50.4726C104.151 50.5468 103.878 50.6013 103.603 50.6358L102.744 50.7445C102.341 50.7886 101.948 50.8988 101.581 51.0709C101.365 51.1727 101.182 51.3345 101.055 51.5369C100.928 51.7393 100.862 51.974 100.864 52.213C100.849 52.408 100.883 52.6037 100.962 52.7822C101.042 52.9608 101.165 53.1166 101.32 53.2355H101.353Z" fill="white"/>
<path d="M108.799 46.0236H110.147V47.2311C110.487 46.776 110.925 46.4041 111.429 46.1433C111.894 45.9217 112.404 45.8101 112.919 45.817C113.405 45.7619 113.897 45.8524 114.333 46.077C114.768 46.3016 115.127 46.6502 115.364 47.0788C115.625 47.7048 115.744 48.381 115.712 49.0585V54.4974H114.267V49.1673C114.283 48.7351 114.205 48.3044 114.038 47.9055C113.914 47.6507 113.716 47.4395 113.469 47.2997C113.223 47.1599 112.94 47.098 112.658 47.1223C112.376 47.1153 112.094 47.1483 111.821 47.2202C111.396 47.3368 111.017 47.5795 110.734 47.9164C110.515 48.1664 110.359 48.4646 110.277 48.7866C110.191 49.2088 110.155 49.6395 110.168 50.0701V54.5191H108.745L108.799 46.0236Z" fill="white"/>
<path d="M122.484 46.2847C122.813 46.5163 123.103 46.799 123.343 47.1223V42.7712H124.713V54.5191H123.43V53.3008C123.145 53.7638 122.739 54.1399 122.256 54.3886C121.775 54.6314 121.241 54.751 120.702 54.7367C120.231 54.7357 119.767 54.6285 119.343 54.4233C118.92 54.218 118.548 53.9198 118.256 53.551C117.511 52.6644 117.124 51.5319 117.169 50.3747C117.125 49.215 117.452 48.0715 118.104 47.1114C118.4 46.6735 118.803 46.3187 119.275 46.0807C119.747 45.8427 120.272 45.7295 120.799 45.7517C121.402 45.7574 121.988 45.943 122.484 46.2847V46.2847ZM119.299 52.6482C119.494 52.956 119.769 53.2048 120.095 53.3677C120.42 53.5306 120.784 53.6015 121.147 53.5728C121.466 53.5749 121.78 53.4987 122.063 53.3507C122.345 53.2028 122.587 52.9877 122.767 52.7243C123.231 51.9961 123.452 51.1389 123.397 50.2768C123.466 49.4308 123.235 48.5877 122.745 47.8946C122.553 47.6498 122.307 47.4528 122.026 47.3188C121.745 47.1848 121.437 47.1176 121.126 47.1223C120.793 47.1159 120.463 47.1861 120.161 47.3275C119.859 47.469 119.594 47.6779 119.386 47.9381C118.896 48.6478 118.662 49.5033 118.723 50.3638C118.695 51.1645 118.895 51.9566 119.299 52.6482V52.6482Z" fill="white"/>
<path d="M136.659 46.0236H138.235L136.898 49.7547C136.376 51.2123 135.942 52.398 135.594 53.3226C135.136 54.6928 134.554 56.0182 133.854 57.2821C133.647 57.5368 133.379 57.7358 133.076 57.8611C132.772 57.9865 132.442 58.0342 132.115 58C131.96 58.0145 131.803 58.0145 131.648 58C131.512 57.9811 131.377 57.952 131.246 57.913V56.5641L131.789 56.6947H132.083C132.269 56.7017 132.453 56.6565 132.615 56.5641C132.742 56.4787 132.85 56.3675 132.93 56.2378C133.036 56.029 133.13 55.8148 133.213 55.596L133.572 54.7258L130.43 46.0236H132.05L134.322 52.9418L136.659 46.0236Z" fill="white"/>
<path d="M145.659 46.8721C146.056 47.3114 146.357 47.8282 146.544 48.3898C146.731 48.9515 146.8 49.5458 146.746 50.1354C146.791 51.3421 146.44 52.5304 145.746 53.5184C145.383 53.9768 144.912 54.3386 144.375 54.572C143.839 54.8053 143.253 54.903 142.67 54.8563C142.151 54.8786 141.633 54.7835 141.155 54.5783C140.677 54.373 140.251 54.0628 139.909 53.6707C139.194 52.7717 138.83 51.6423 138.887 50.4944C138.827 49.2653 139.213 48.0558 139.974 47.0896C140.33 46.6712 140.776 46.3391 141.279 46.1186C141.782 45.8981 142.328 45.795 142.877 45.8169C143.388 45.7961 143.898 45.8788 144.376 46.0601C144.854 46.2414 145.291 46.5176 145.659 46.8721V46.8721ZM144.779 52.5176C145.132 51.77 145.311 50.9516 145.301 50.1245C145.326 49.4618 145.196 48.8022 144.92 48.1992C144.734 47.8202 144.439 47.5057 144.073 47.2962C143.707 47.0868 143.286 46.9921 142.866 47.0244C142.49 46.9983 142.115 47.0782 141.782 47.2552C141.45 47.4321 141.174 47.6989 140.985 48.0251C140.575 48.7584 140.373 49.5893 140.398 50.4291C140.369 51.2211 140.573 52.0042 140.985 52.6808C141.188 52.9847 141.468 53.2287 141.797 53.3875C142.126 53.5463 142.491 53.614 142.855 53.5836C143.239 53.6119 143.622 53.5257 143.957 53.3359C144.291 53.1462 144.562 52.8614 144.735 52.5176H144.779Z" fill="white"/>
<path d="M149.92 46.0236V51.6583C149.903 52.031 149.97 52.4027 150.116 52.746C150.242 52.9978 150.442 53.2053 150.688 53.3413C150.935 53.4772 151.217 53.5352 151.497 53.5075C151.928 53.5343 152.356 53.4175 152.713 53.1755C153.071 52.9335 153.339 52.5798 153.475 52.1695C153.692 51.5407 153.788 50.8762 153.758 50.2115V46.0236H155.193V54.5191H153.845V53.3008C153.675 53.6173 153.446 53.898 153.171 54.1275C152.621 54.5719 151.931 54.807 151.225 54.7911C150.746 54.8443 150.263 54.7576 149.832 54.5413C149.402 54.3251 149.044 53.9887 148.801 53.5728C148.543 53.0342 148.423 52.4397 148.453 51.8432V46.0236H149.92Z" fill="white"/>
<path d="M157.616 46.0236H158.964V47.4921C159.165 47.081 159.441 46.7118 159.78 46.4043C160.181 46.0116 160.718 45.7895 161.28 45.7843H161.421H161.736V47.2963H161.508H161.269C160.958 47.2766 160.648 47.3292 160.361 47.45C160.074 47.5708 159.819 47.7565 159.617 47.9925C159.238 48.4385 159.033 49.0064 159.04 49.5915V54.4756H157.616V46.0236Z" fill="white"/>
<path d="M172.095 46.2847C172.422 46.5191 172.712 46.8015 172.954 47.1223V42.7712H174.324V54.5191H173.041V53.3008C172.753 53.7613 172.348 54.1368 171.867 54.3886C171.386 54.6314 170.852 54.751 170.313 54.7367C169.842 54.7357 169.378 54.6285 168.955 54.4233C168.531 54.218 168.159 53.9198 167.867 53.551C167.122 52.6644 166.735 51.5319 166.78 50.3747C166.736 49.215 167.063 48.0715 167.715 47.1114C168.011 46.6735 168.414 46.3187 168.886 46.0807C169.358 45.8427 169.883 45.7295 170.411 45.7517C171.013 45.7574 171.599 45.943 172.095 46.2847V46.2847ZM168.911 52.6482C169.105 52.956 169.38 53.2048 169.706 53.3677C170.032 53.5306 170.395 53.6015 170.758 53.5728C171.077 53.5749 171.392 53.4987 171.674 53.3507C171.956 53.2028 172.198 52.9877 172.378 52.7243C172.843 51.9961 173.063 51.1389 173.009 50.2768C173.077 49.4308 172.846 48.5877 172.356 47.8946C172.164 47.6498 171.918 47.4528 171.637 47.3188C171.356 47.1848 171.048 47.1176 170.737 47.1223C170.404 47.1159 170.074 47.1861 169.772 47.3275C169.471 47.469 169.206 47.6779 168.997 47.9381C168.507 48.6478 168.274 49.5033 168.334 50.3638C168.306 51.1645 168.506 51.9566 168.911 52.6482V52.6482Z" fill="white"/>
<path d="M176.498 46.0236H177.846V47.4921C178.047 47.0786 178.328 46.709 178.672 46.4044C178.866 46.2068 179.098 46.0502 179.354 45.9437C179.61 45.8372 179.884 45.783 180.161 45.7843H180.302H180.628V47.2963H180.389H180.161C179.849 47.2774 179.537 47.3303 179.249 47.451C178.96 47.5717 178.704 47.7569 178.498 47.9925C178.119 48.4385 177.915 49.0064 177.922 49.5915V54.4756H176.498V46.0236Z" fill="white"/>
<path d="M187.107 46.252C187.622 46.4962 188.065 46.8713 188.39 47.3398C188.679 47.7962 188.871 48.3071 188.955 48.8409C189.055 49.4593 189.095 50.0858 189.075 50.7119H182.911C182.898 51.4488 183.106 52.1726 183.509 52.7895C183.715 53.0557 183.984 53.2665 184.291 53.4032C184.598 53.5399 184.935 53.5982 185.27 53.5727C185.6 53.5917 185.931 53.5349 186.236 53.4068C186.541 53.2786 186.813 53.0824 187.031 52.8331C187.28 52.5485 187.459 52.2095 187.553 51.8432H188.966C188.908 52.2248 188.783 52.5931 188.596 52.931C188.41 53.2772 188.172 53.5928 187.89 53.8664C187.452 54.2966 186.902 54.5944 186.303 54.7258C185.92 54.8074 185.53 54.8475 185.14 54.8454C184.639 54.8536 184.143 54.755 183.684 54.5561C183.225 54.3573 182.813 54.0629 182.476 53.6924C182.087 53.2482 181.791 52.7308 181.604 52.1704C181.417 51.6101 181.344 51.018 181.389 50.4291C181.347 49.2458 181.733 48.0871 182.476 47.1658C182.83 46.7495 183.272 46.418 183.771 46.1958C184.269 45.9736 184.811 45.8664 185.357 45.8822C185.961 45.8662 186.561 45.9929 187.107 46.252V46.252ZM187.618 49.5915C187.584 49.0765 187.447 48.5735 187.216 48.1121C187.024 47.7719 186.739 47.4938 186.394 47.3106C186.049 47.1275 185.659 47.047 185.27 47.0787C184.964 47.075 184.66 47.1361 184.379 47.2579C184.098 47.3798 183.846 47.5597 183.64 47.7858C183.189 48.2786 182.94 48.9234 182.944 49.5915H187.618Z" fill="white"/>
<path d="M195.434 49.374C195.571 49.3692 195.704 49.3285 195.82 49.256C195.937 49.1834 196.032 49.0816 196.097 48.9606C196.162 48.7871 196.192 48.602 196.184 48.4167C196.203 48.2063 196.166 47.9945 196.076 47.8032C195.986 47.612 195.847 47.4482 195.673 47.3289C195.216 47.0857 194.7 46.9728 194.184 47.0026C193.892 46.971 193.598 47.0087 193.324 47.1127C193.05 47.2166 192.804 47.3839 192.607 47.6009C192.405 47.8979 192.285 48.2432 192.26 48.6016H190.933C190.901 48.1815 190.978 47.7603 191.158 47.379C191.337 46.9977 191.611 46.6694 191.955 46.4261C192.632 46.0035 193.418 45.788 194.216 45.8061C195.064 45.7682 195.906 45.9639 196.651 46.3717C196.953 46.5569 197.198 46.8209 197.361 47.1352C197.524 47.4495 197.598 47.8023 197.575 48.1556V53.0506C197.571 53.1724 197.602 53.2929 197.662 53.3987C197.71 53.4531 197.771 53.4946 197.84 53.5193C197.908 53.544 197.981 53.5512 198.053 53.5401H198.26H198.521V54.6279C198.354 54.6818 198.183 54.7218 198.01 54.7475C197.851 54.7606 197.691 54.7606 197.532 54.7475C197.32 54.7682 197.107 54.7305 196.915 54.6384C196.723 54.5464 196.561 54.4035 196.445 54.2254C196.31 53.9837 196.225 53.7174 196.195 53.4422C195.858 53.8626 195.431 54.2011 194.944 54.4321C194.39 54.7176 193.774 54.8633 193.151 54.8563C192.797 54.8709 192.444 54.8149 192.111 54.6917C191.779 54.5684 191.475 54.3804 191.216 54.1384C190.972 53.9089 190.779 53.6304 190.65 53.3211C190.52 53.0118 190.458 52.6787 190.466 52.3436C190.447 52.0033 190.504 51.6631 190.632 51.3472C190.759 51.0314 190.955 50.7476 191.205 50.5161C191.754 50.0582 192.429 49.7775 193.14 49.7112L195.434 49.374ZM192.401 53.2355C192.713 53.4722 193.096 53.595 193.488 53.5836C193.994 53.5864 194.494 53.467 194.944 53.2355C195.313 53.0802 195.626 52.8155 195.839 52.4771C196.053 52.1387 196.158 51.7428 196.14 51.3428V50.2007C195.931 50.3266 195.704 50.4184 195.466 50.4726C195.202 50.5468 194.934 50.6013 194.662 50.6358L193.792 50.7445C193.389 50.7886 192.996 50.8988 192.629 51.0709C192.416 51.1836 192.24 51.3554 192.123 51.5658C192.005 51.7761 191.951 52.016 191.966 52.2565C191.956 52.4425 191.99 52.6283 192.065 52.7985C192.141 52.9688 192.256 53.1185 192.401 53.2355V53.2355Z" fill="white"/>
<path d="M199.912 46.0236H201.325V47.2311C201.584 46.8839 201.891 46.5761 202.238 46.3173C202.707 45.9923 203.266 45.8212 203.836 45.8278C204.424 45.8012 205.004 45.9778 205.478 46.3282C205.738 46.5696 205.952 46.8572 206.108 47.1767C206.38 46.7534 206.753 46.4054 207.195 46.1651C207.639 45.9392 208.132 45.8235 208.63 45.8278C209.098 45.7786 209.571 45.8703 209.987 46.0912C210.404 46.3121 210.745 46.6521 210.967 47.0679C211.208 47.6344 211.319 48.2476 211.293 48.8627V54.5191H209.815V48.6125C209.839 48.3989 209.814 48.1824 209.74 47.9804C209.667 47.7783 209.547 47.5962 209.391 47.4486C209.089 47.2351 208.727 47.1245 208.358 47.1332C208.092 47.1275 207.827 47.1745 207.579 47.2716C207.331 47.3687 207.104 47.5139 206.912 47.6988C206.688 47.9519 206.518 48.2487 206.413 48.5707C206.308 48.8926 206.271 49.2328 206.304 49.5698V54.5191H204.858V48.9498C204.881 48.5191 204.811 48.0886 204.651 47.6879C204.525 47.4845 204.344 47.3212 204.128 47.2172C203.912 47.1132 203.672 47.0727 203.434 47.1005C202.884 47.114 202.36 47.3355 201.967 47.7206C201.711 48.0366 201.521 48.4004 201.407 48.7907C201.293 49.181 201.258 49.59 201.303 49.994V54.4974H199.879L199.912 46.0236Z" fill="white"/>
<path d="M214.282 51.8541C214.298 52.2432 214.422 52.6201 214.641 52.9419C214.885 53.1974 215.184 53.3932 215.516 53.514C215.848 53.6347 216.203 53.6772 216.554 53.638C217.051 53.6459 217.541 53.526 217.978 53.29C218.173 53.1861 218.334 53.0284 218.442 52.8355C218.55 52.6426 218.6 52.4228 218.587 52.2022C218.592 52.0307 218.549 51.8612 218.463 51.7131C218.376 51.5649 218.25 51.4442 218.098 51.3646C217.7 51.1875 217.285 51.0526 216.859 50.9621L215.706 50.6793C215.137 50.5605 214.587 50.359 214.076 50.081C213.789 49.9221 213.551 49.6885 213.387 49.405C213.222 49.1216 213.137 48.7989 213.141 48.4711C213.129 48.1008 213.203 47.7328 213.355 47.3953C213.508 47.0578 213.736 46.7597 214.021 46.524C214.696 45.9987 215.538 45.7359 216.391 45.7843C216.912 45.7271 217.438 45.796 217.926 45.9853C218.414 46.1747 218.85 46.4788 219.196 46.8721C219.54 47.3084 219.724 47.8499 219.717 48.4059H218.369C218.34 48.0881 218.22 47.7858 218.022 47.5356C217.784 47.3276 217.506 47.1709 217.204 47.0754C216.903 46.9799 216.586 46.9478 216.272 46.9809C215.833 46.9489 215.396 47.0554 215.021 47.2855C214.889 47.3756 214.781 47.4974 214.707 47.6398C214.633 47.7822 214.595 47.9408 214.598 48.1013C214.599 48.2852 214.652 48.465 214.75 48.6207C214.848 48.7763 214.987 48.9015 215.152 48.9824C215.451 49.1462 215.774 49.2636 216.108 49.3305L217.065 49.5589C217.796 49.6944 218.502 49.9363 219.163 50.2768C219.441 50.4673 219.664 50.727 219.811 51.0304C219.958 51.3337 220.023 51.6701 220 52.0064C220 52.3755 219.923 52.7406 219.773 53.0779C219.623 53.4152 219.404 53.7173 219.13 53.9644C218.383 54.5666 217.435 54.8621 216.478 54.7911C215.99 54.8404 215.496 54.7886 215.029 54.6389C214.561 54.4892 214.13 54.2448 213.761 53.9209C213.228 53.3407 212.923 52.5873 212.902 51.7997L214.282 51.8541Z" fill="white"/>
</g>
<defs>
<clipPath id="clip0">
<rect width="220" height="58" fill="white"/>
</clipPath>
</defs>
</svg>
