<svg width="58" height="58" viewBox="0 0 58 58" fill="none" xmlns="http://www.w3.org/2000/svg">
<g clip-path="url(#clip0)">
<path d="M0 25.0185C0.0595394 24.8948 0.0998609 24.7628 0.119571 24.6269C0.550258 19.2037 2.66327 14.0505 6.16335 9.88761C9.14735 6.22603 13.0428 3.4159 17.4574 1.7402C19.6012 0.855061 21.8728 0.318901 24.186 0.152049C25.8662 -0.00196921 27.5542 -0.0528272 29.2406 -0.000239198C30.705 0.125314 32.1582 0.357994 33.5886 0.695935C35.5679 1.10999 37.4808 1.79445 39.2737 2.73007C44.6057 5.37026 48.9247 9.68844 51.5678 15.0219C52.8102 17.5362 53.6641 20.2246 54.1005 22.9953C55.1433 29.5764 53.7354 36.3116 50.1438 41.9225L49.5785 42.7383C49.542 42.8053 49.5093 42.8743 49.4807 42.945C49.1546 42.6078 48.8937 42.3467 48.6437 42.0639C47.9045 41.259 47.1871 40.454 46.4697 39.6599C46.3868 39.5816 46.3338 39.4768 46.32 39.3636C46.3061 39.2504 46.3321 39.1359 46.3936 39.0399C47.0784 37.604 47.7958 36.1899 48.3828 34.6888C49.1605 32.5966 49.5972 30.393 49.6764 28.1622C49.7658 26.4109 49.6527 24.6553 49.3394 22.93C48.917 20.8177 48.1844 18.7795 47.1654 16.882C45.1616 12.903 41.9757 9.64268 38.0454 7.5489C35.8986 6.34782 33.5652 5.51676 31.1428 5.09053C29.8753 4.86632 28.5925 4.73905 27.3057 4.70981C25.0515 4.70927 22.8097 5.04284 20.6532 5.69969C16.9981 6.7983 13.6858 8.81703 11.0332 11.5628C8.80563 13.841 7.0995 16.5764 6.03291 19.5797C4.98386 22.4343 4.52888 25.4733 4.69588 28.5103C4.83717 30.5575 5.25024 32.5767 5.92421 34.5148C6.696 36.8111 7.83394 38.9674 9.29394 40.9C11.2917 43.4767 13.8152 45.5979 16.6965 47.122C18.1098 47.8945 19.6046 48.5074 21.1532 48.9495C22.5482 49.3417 23.9796 49.5895 25.4252 49.6892C28.2989 49.9216 31.1903 49.589 33.9365 48.7102C34.8495 48.4165 35.73 48.0467 36.6214 47.6768C37.2192 47.4375 37.3823 47.4375 37.7953 47.9052C38.6432 48.8407 39.4802 49.7871 40.3389 50.7226C40.5455 50.951 40.5672 51.0598 40.252 51.2229C38.1596 52.3543 35.9313 53.2134 33.6212 53.7792C32.1329 54.1601 30.6029 54.3538 29.0667 54.3557C27.2731 54.3557 25.4795 54.3557 23.7077 54.2252C22.2851 54.0605 20.8782 53.7804 19.501 53.3876C17.1154 52.7543 14.8447 51.7485 12.7724 50.4071C8.79247 47.9103 5.51797 44.4351 3.26103 40.3126C2.09527 38.174 1.22496 35.8869 0.673946 33.514C0.434804 32.5133 0.326103 31.5451 0.152181 30.4574C0.110284 30.2952 0.0594797 30.1354 0 29.9788L0 25.0185Z" fill="black"/>
<path d="M38.8932 42.7603C38.2845 41.8575 38.2845 41.8575 37.4801 42.3796C35.1729 43.9389 32.5476 44.9644 29.7949 45.3818C27.5056 45.6886 25.179 45.5632 22.9359 45.012C20.7968 44.5265 18.7661 43.6487 16.9465 42.4231C13.8219 40.2955 11.4272 37.2573 10.0874 33.7209C9.35267 31.8182 8.9625 29.7996 8.9352 27.7599C8.85252 25.0998 9.35287 22.4537 10.4011 20.0077C11.4493 17.5617 13.02 15.375 15.0028 13.6013C16.9857 11.8275 19.3325 10.5097 21.8786 9.74038C24.4246 8.97107 27.1081 8.76892 29.7406 9.14815C33.1282 9.60842 36.3165 11.0189 38.9367 13.2164C41.3271 15.1966 43.1625 17.7642 44.263 20.6677C45.3231 23.4918 45.6791 26.532 45.3003 29.5249C44.9215 32.5178 43.8192 35.3731 42.089 37.8436C41.7217 38.3687 41.3262 38.8734 40.9042 39.3556C40.7302 39.5731 40.7194 39.6928 40.9042 39.8995C41.3716 40.4107 41.3607 40.4216 41.8825 39.9647C42.0201 39.805 42.1927 39.6792 42.3868 39.5972C42.581 39.5151 42.7914 39.479 43.0018 39.4916C43.2121 39.5043 43.4167 39.5653 43.5997 39.67C43.7826 39.7747 43.9389 39.9202 44.0565 40.0953C45.4044 41.5855 46.774 43.054 48.1219 44.5443C48.7959 45.2731 49.4589 46.0236 50.1111 46.7198C50.2536 46.8384 50.3663 46.9887 50.4402 47.1588C50.514 47.3289 50.547 47.5139 50.5364 47.699C50.5258 47.8842 50.472 48.0642 50.3793 48.2248C50.2865 48.3853 50.1575 48.5218 50.0024 48.6234L46.2631 52.039C46.134 52.189 45.9717 52.3068 45.7891 52.383C45.6065 52.4592 45.4087 52.4917 45.2114 52.478C45.014 52.4642 44.8226 52.4046 44.6523 52.3039C44.482 52.2031 44.3376 52.064 44.2304 51.8976L38.2953 45.371C38.1457 45.1979 38.0111 45.0123 37.8931 44.8162C37.778 44.6217 37.7304 44.3946 37.758 44.1702C37.7855 43.9458 37.8866 43.7369 38.0453 43.5761C38.3062 43.2824 38.6214 43.0322 38.9149 42.7603H38.8932ZM27.3383 40.7588C30.0026 40.7309 32.5991 39.9154 34.8015 38.4147C37.0038 36.9141 38.7137 34.7953 39.716 32.3249C40.7183 29.8544 40.9683 27.1426 40.4346 24.5303C39.9009 21.918 38.6074 19.522 36.7166 17.6434C34.8258 15.7649 32.4222 14.4877 29.808 13.9724C27.1938 13.4571 24.4857 13.7268 22.0242 14.7476C19.5628 15.7683 17.4579 17.4946 15.9742 19.7092C14.4904 21.9238 13.6942 24.528 13.6854 27.1943C13.6796 28.9855 14.0294 30.76 14.7147 32.4148C15.4 34.0696 16.407 35.5716 17.6772 36.8336C18.9475 38.0957 20.4556 39.0926 22.1141 39.7664C23.7726 40.4402 25.5484 40.7775 27.3383 40.7588" fill="black"/>
<path d="M36.4475 27.6185C36.4029 29.5876 35.7206 31.4891 34.5033 33.0368C33.2859 34.5846 31.5993 35.695 29.6971 36.201C27.4386 36.822 25.0291 36.5677 22.9497 35.4889C20.8702 34.4102 19.2739 32.5863 18.4792 30.3814C17.9821 29.029 17.8145 27.5775 17.9904 26.1473C18.1662 24.717 18.6803 23.3494 19.4901 22.1579C19.6369 21.8754 19.8386 21.625 20.0834 21.4215C20.3281 21.218 20.611 21.0654 20.9154 20.9726C21.2198 20.8799 21.5396 20.8489 21.8562 20.8814C22.1727 20.914 22.4796 21.0094 22.7588 21.1621C23.0381 21.3149 23.284 21.5218 23.4823 21.7709C23.6805 22.02 23.8271 22.3061 23.9135 22.6126C23.9998 22.9191 24.0242 23.2398 23.9851 23.5558C23.9461 23.8718 23.8444 24.1769 23.686 24.4531C23.3224 25.0266 23.0339 25.6444 22.8272 26.2914C22.6974 26.9024 22.697 27.5338 22.826 28.145C22.955 28.7562 23.2105 29.3335 23.5761 29.8398C23.9418 30.3461 24.4093 30.7701 24.9488 31.0845C25.4882 31.3988 26.0874 31.5966 26.7079 31.665C27.694 31.7475 28.6804 31.5094 29.5205 30.9862C30.3606 30.463 31.0096 29.6825 31.3711 28.7607C31.6166 28.0855 31.6983 27.3616 31.6095 26.6486C31.5207 25.9356 31.2639 25.254 30.8602 24.6598C30.6832 24.4019 30.5587 24.1117 30.4938 23.8057C30.4288 23.4997 30.4248 23.1839 30.4818 22.8763C30.597 22.2552 30.954 21.7052 31.4744 21.3475C31.9948 20.9898 32.6358 20.8535 33.2566 20.9688C33.8773 21.084 34.4269 21.4413 34.7843 21.9621C35.9172 23.6261 36.4955 25.6059 36.4366 27.6185" fill="black"/>
<path d="M24.7512 21.4291C24.7512 20.1455 24.7512 18.8619 24.7512 17.5784C24.7354 17.3185 24.7748 17.0583 24.867 16.8148C24.9591 16.5714 25.1019 16.3503 25.2859 16.1663C25.4698 15.9822 25.6907 15.8393 25.934 15.7471C26.1773 15.6548 26.4373 15.6154 26.697 15.6313C27.194 15.6055 27.6924 15.6237 28.1862 15.6856C28.6141 15.7588 29.0013 15.9838 29.2768 16.3194C29.5523 16.6551 29.6977 17.0789 29.6863 17.5131C29.6863 18.3833 29.6863 19.2535 29.6863 20.1238C29.6863 21.8098 29.6863 23.5067 29.6863 25.1928C29.7089 25.4681 29.6718 25.745 29.5774 26.0046C29.483 26.2641 29.3337 26.5002 29.1395 26.6965C28.9454 26.8929 28.7111 27.0449 28.4527 27.142C28.1943 27.2392 27.918 27.2793 27.6427 27.2595C27.2807 27.2374 26.9177 27.2374 26.5557 27.2595C26.3151 27.2625 26.0763 27.2172 25.8534 27.1264C25.6305 27.0356 25.428 26.9011 25.2579 26.7308C25.0877 26.5605 24.9533 26.3579 24.8626 26.1349C24.7718 25.9118 24.7266 25.6729 24.7295 25.4321C24.7295 24.105 24.7295 22.767 24.7295 21.44" fill="black"/>
</g>
</svg>
